<mxfile host="app.diagrams.net" modified="2023-05-12T08:25:09.671Z" agent="Mozilla/5.0 (Windows NT 10.0; Win64; x64) AppleWebKit/537.36 (KHTML, like Gecko) Chrome/112.0.0.0 Safari/537.36" etag="pGRhElhzVJLptmvlOHcN" version="21.1.7" type="github" pages="4">
  <diagram name="工单" id="LHwVmnjy8u7Do5aFjTPb">
    <mxGraphModel dx="2607" dy="640" grid="1" gridSize="10" guides="1" tooltips="1" connect="1" arrows="1" fold="1" page="1" pageScale="1" pageWidth="827" pageHeight="1169" math="0" shadow="0">
      <root>
        <mxCell id="NMduShGz2eBYHH2EpHa--0" />
        <mxCell id="NMduShGz2eBYHH2EpHa--1" parent="NMduShGz2eBYHH2EpHa--0" />
        <mxCell id="NMduShGz2eBYHH2EpHa--2" value="" style="endArrow=classic;html=1;rounded=0;entryX=0.007;entryY=0.363;entryDx=0;entryDy=0;entryPerimeter=0;" edge="1" parent="NMduShGz2eBYHH2EpHa--1" target="NMduShGz2eBYHH2EpHa--7">
          <mxGeometry width="50" height="50" relative="1" as="geometry">
            <mxPoint x="80" y="189.5" as="sourcePoint" />
            <mxPoint x="420" y="190" as="targetPoint" />
            <Array as="points">
              <mxPoint x="220" y="189.5" />
            </Array>
          </mxGeometry>
        </mxCell>
        <mxCell id="NMduShGz2eBYHH2EpHa--3" value="Web API Calls" style="text;html=1;strokeColor=none;fillColor=none;align=center;verticalAlign=middle;whiteSpace=wrap;rounded=0;" vertex="1" parent="NMduShGz2eBYHH2EpHa--1">
          <mxGeometry x="170" y="160" width="170" height="30" as="geometry" />
        </mxCell>
        <mxCell id="NMduShGz2eBYHH2EpHa--4" value="" style="endArrow=classic;html=1;rounded=0;" edge="1" parent="NMduShGz2eBYHH2EpHa--1">
          <mxGeometry width="50" height="50" relative="1" as="geometry">
            <mxPoint x="150" y="190" as="sourcePoint" />
            <mxPoint x="260" y="70" as="targetPoint" />
            <Array as="points">
              <mxPoint x="150" y="70" />
            </Array>
          </mxGeometry>
        </mxCell>
        <mxCell id="NMduShGz2eBYHH2EpHa--5" value="" style="verticalLabelPosition=bottom;verticalAlign=top;html=1;shape=mxgraph.basic.star" vertex="1" parent="NMduShGz2eBYHH2EpHa--1">
          <mxGeometry x="260" y="60" width="30" height="30" as="geometry" />
        </mxCell>
        <mxCell id="NMduShGz2eBYHH2EpHa--6" value="JWT" style="text;html=1;strokeColor=none;fillColor=none;align=center;verticalAlign=middle;whiteSpace=wrap;rounded=0;" vertex="1" parent="NMduShGz2eBYHH2EpHa--1">
          <mxGeometry x="280" y="60" width="60" height="30" as="geometry" />
        </mxCell>
        <mxCell id="NMduShGz2eBYHH2EpHa--7" value="MESWorkOrderApi" style="shape=ext;double=1;whiteSpace=wrap;html=1;aspect=fixed;" vertex="1" parent="NMduShGz2eBYHH2EpHa--1">
          <mxGeometry x="430" y="147" width="120" height="120" as="geometry" />
        </mxCell>
        <mxCell id="NMduShGz2eBYHH2EpHa--8" value="System Database" style="shape=cylinder3;whiteSpace=wrap;html=1;boundedLbl=1;backgroundOutline=1;size=15;" vertex="1" parent="NMduShGz2eBYHH2EpHa--1">
          <mxGeometry x="460" y="400" width="60" height="60" as="geometry" />
        </mxCell>
        <mxCell id="NMduShGz2eBYHH2EpHa--9" value="" style="endArrow=classic;html=1;rounded=0;exitX=0.5;exitY=1;exitDx=0;exitDy=0;" edge="1" parent="NMduShGz2eBYHH2EpHa--1" source="NMduShGz2eBYHH2EpHa--7" target="NMduShGz2eBYHH2EpHa--8">
          <mxGeometry width="50" height="50" relative="1" as="geometry">
            <mxPoint x="530" y="330" as="sourcePoint" />
            <mxPoint x="580" y="280" as="targetPoint" />
          </mxGeometry>
        </mxCell>
        <mxCell id="NMduShGz2eBYHH2EpHa--10" value="MySQL" style="text;html=1;strokeColor=none;fillColor=none;align=center;verticalAlign=middle;whiteSpace=wrap;rounded=0;" vertex="1" parent="NMduShGz2eBYHH2EpHa--1">
          <mxGeometry x="450" y="470" width="60" height="30" as="geometry" />
        </mxCell>
        <mxCell id="NMduShGz2eBYHH2EpHa--11" value="" style="shape=actor;whiteSpace=wrap;html=1;" vertex="1" parent="NMduShGz2eBYHH2EpHa--1">
          <mxGeometry x="-80" y="155" width="40" height="60" as="geometry" />
        </mxCell>
        <mxCell id="NMduShGz2eBYHH2EpHa--12" value="工单管理、生产现场、设备监控管理" style="rounded=1;whiteSpace=wrap;html=1;fillColor=#f8cecc;strokeColor=#b85450;" vertex="1" parent="NMduShGz2eBYHH2EpHa--1">
          <mxGeometry x="-70" y="10" width="630" height="30" as="geometry" />
        </mxCell>
        <mxCell id="Ey2I2gj0Vbo_uophqBOj-2" value="前端" style="ellipse;whiteSpace=wrap;html=1;" vertex="1" parent="NMduShGz2eBYHH2EpHa--1">
          <mxGeometry x="-20" y="165" width="100" height="50" as="geometry" />
        </mxCell>
      </root>
    </mxGraphModel>
  </diagram>
  <diagram name="QMNew" id="i1imacI2bnwapqhzt_H6">
    <mxGraphModel dx="1961" dy="1760" grid="1" gridSize="10" guides="1" tooltips="1" connect="1" arrows="1" fold="1" page="1" pageScale="1" pageWidth="827" pageHeight="1169" math="0" shadow="0">
      <root>
        <mxCell id="W7-rKrqx2AuoTJekvJAu-0" />
        <mxCell id="W7-rKrqx2AuoTJekvJAu-1" parent="W7-rKrqx2AuoTJekvJAu-0" />
        <mxCell id="nSvTF0xJLytpFi_meoHh-4" value="" style="rounded=0;whiteSpace=wrap;html=1;" vertex="1" parent="W7-rKrqx2AuoTJekvJAu-1">
          <mxGeometry x="-80" y="400" width="340" height="100" as="geometry" />
        </mxCell>
        <mxCell id="W7-rKrqx2AuoTJekvJAu-2" value="" style="endArrow=classic;html=1;rounded=0;exitX=1;exitY=0.5;exitDx=0;exitDy=0;" edge="1" parent="W7-rKrqx2AuoTJekvJAu-1" source="f87VL9ql5aKDiun6NzoF-19">
          <mxGeometry width="50" height="50" relative="1" as="geometry">
            <mxPoint x="80" y="189.5" as="sourcePoint" />
            <mxPoint x="480" y="189" as="targetPoint" />
            <Array as="points">
              <mxPoint x="220" y="189.5" />
            </Array>
          </mxGeometry>
        </mxCell>
        <mxCell id="W7-rKrqx2AuoTJekvJAu-3" value="Web API Calls" style="text;html=1;strokeColor=none;fillColor=none;align=center;verticalAlign=middle;whiteSpace=wrap;rounded=0;" vertex="1" parent="W7-rKrqx2AuoTJekvJAu-1">
          <mxGeometry x="170" y="160" width="170" height="30" as="geometry" />
        </mxCell>
        <mxCell id="W7-rKrqx2AuoTJekvJAu-4" value="" style="endArrow=classic;html=1;rounded=0;" edge="1" parent="W7-rKrqx2AuoTJekvJAu-1">
          <mxGeometry width="50" height="50" relative="1" as="geometry">
            <mxPoint x="150" y="190" as="sourcePoint" />
            <mxPoint x="260" y="70" as="targetPoint" />
            <Array as="points">
              <mxPoint x="150" y="70" />
            </Array>
          </mxGeometry>
        </mxCell>
        <mxCell id="W7-rKrqx2AuoTJekvJAu-5" value="" style="verticalLabelPosition=bottom;verticalAlign=top;html=1;shape=mxgraph.basic.star" vertex="1" parent="W7-rKrqx2AuoTJekvJAu-1">
          <mxGeometry x="260" y="60" width="30" height="30" as="geometry" />
        </mxCell>
        <mxCell id="W7-rKrqx2AuoTJekvJAu-6" value="JWT" style="text;html=1;strokeColor=none;fillColor=none;align=center;verticalAlign=middle;whiteSpace=wrap;rounded=0;" vertex="1" parent="W7-rKrqx2AuoTJekvJAu-1">
          <mxGeometry x="280" y="60" width="60" height="30" as="geometry" />
        </mxCell>
        <mxCell id="W7-rKrqx2AuoTJekvJAu-7" value="MESQM&lt;br&gt;WebApi" style="shape=ext;double=1;whiteSpace=wrap;html=1;aspect=fixed;" vertex="1" parent="W7-rKrqx2AuoTJekvJAu-1">
          <mxGeometry x="486" y="110" width="180" height="180" as="geometry" />
        </mxCell>
        <mxCell id="W7-rKrqx2AuoTJekvJAu-8" value="System Database" style="shape=cylinder3;whiteSpace=wrap;html=1;boundedLbl=1;backgroundOutline=1;size=15;" vertex="1" parent="W7-rKrqx2AuoTJekvJAu-1">
          <mxGeometry x="520" y="403" width="60" height="60" as="geometry" />
        </mxCell>
        <mxCell id="W7-rKrqx2AuoTJekvJAu-9" value="" style="endArrow=classic;html=1;rounded=0;exitX=0.355;exitY=1.01;exitDx=0;exitDy=0;exitPerimeter=0;" edge="1" parent="W7-rKrqx2AuoTJekvJAu-1" source="W7-rKrqx2AuoTJekvJAu-7" target="W7-rKrqx2AuoTJekvJAu-8">
          <mxGeometry width="50" height="50" relative="1" as="geometry">
            <mxPoint x="550" y="300" as="sourcePoint" />
            <mxPoint x="626" y="280" as="targetPoint" />
          </mxGeometry>
        </mxCell>
        <mxCell id="W7-rKrqx2AuoTJekvJAu-10" value="MySQL" style="text;html=1;strokeColor=none;fillColor=none;align=center;verticalAlign=middle;whiteSpace=wrap;rounded=0;" vertex="1" parent="W7-rKrqx2AuoTJekvJAu-1">
          <mxGeometry x="496" y="470" width="60" height="30" as="geometry" />
        </mxCell>
        <mxCell id="W7-rKrqx2AuoTJekvJAu-14" value="SRO(DesignTime)" style="shape=hexagon;perimeter=hexagonPerimeter2;whiteSpace=wrap;html=1;fixedSize=1;size=20;" vertex="1" parent="W7-rKrqx2AuoTJekvJAu-1">
          <mxGeometry x="117.5" y="420" width="120" height="40" as="geometry" />
        </mxCell>
        <mxCell id="W7-rKrqx2AuoTJekvJAu-17" value="" style="shape=actor;whiteSpace=wrap;html=1;" vertex="1" parent="W7-rKrqx2AuoTJekvJAu-1">
          <mxGeometry x="-120" y="160" width="40" height="60" as="geometry" />
        </mxCell>
        <mxCell id="W7-rKrqx2AuoTJekvJAu-23" value="展示图表" style="ellipse;whiteSpace=wrap;html=1;" vertex="1" parent="W7-rKrqx2AuoTJekvJAu-1">
          <mxGeometry x="821" y="170" width="120" height="60" as="geometry" />
        </mxCell>
        <mxCell id="W7-rKrqx2AuoTJekvJAu-24" value="SPC" style="text;html=1;align=center;verticalAlign=middle;resizable=0;points=[];autosize=1;strokeColor=none;fillColor=none;" vertex="1" parent="W7-rKrqx2AuoTJekvJAu-1">
          <mxGeometry x="856" y="240" width="50" height="30" as="geometry" />
        </mxCell>
        <mxCell id="W7-rKrqx2AuoTJekvJAu-26" value="获取采样结果" style="text;html=1;strokeColor=none;fillColor=none;align=center;verticalAlign=middle;whiteSpace=wrap;rounded=0;" vertex="1" parent="W7-rKrqx2AuoTJekvJAu-1">
          <mxGeometry x="711" y="150" width="60" height="30" as="geometry" />
        </mxCell>
        <mxCell id="W7-rKrqx2AuoTJekvJAu-30" value="配置采样参数" style="text;html=1;strokeColor=none;fillColor=none;align=center;verticalAlign=middle;whiteSpace=wrap;rounded=0;" vertex="1" parent="W7-rKrqx2AuoTJekvJAu-1">
          <mxGeometry x="45" y="150" width="105" height="30" as="geometry" />
        </mxCell>
        <mxCell id="f87VL9ql5aKDiun6NzoF-0" value="" style="endArrow=classic;html=1;rounded=0;exitX=0;exitY=0;exitDx=0;exitDy=37.50000000000001;exitPerimeter=0;entryX=1;entryY=0.5;entryDx=0;entryDy=0;" edge="1" parent="W7-rKrqx2AuoTJekvJAu-1" source="W7-rKrqx2AuoTJekvJAu-8" target="W7-rKrqx2AuoTJekvJAu-14">
          <mxGeometry width="50" height="50" relative="1" as="geometry">
            <mxPoint x="90" y="430" as="sourcePoint" />
            <mxPoint x="270" y="438" as="targetPoint" />
          </mxGeometry>
        </mxCell>
        <mxCell id="f87VL9ql5aKDiun6NzoF-1" value="获取采样参数，绑定特征，数据源" style="text;html=1;strokeColor=none;fillColor=none;align=center;verticalAlign=middle;whiteSpace=wrap;rounded=0;" vertex="1" parent="W7-rKrqx2AuoTJekvJAu-1">
          <mxGeometry x="320" y="400" width="150" height="30" as="geometry" />
        </mxCell>
        <mxCell id="f87VL9ql5aKDiun6NzoF-2" value="SRO(Runtime)" style="rounded=1;whiteSpace=wrap;html=1;" vertex="1" parent="W7-rKrqx2AuoTJekvJAu-1">
          <mxGeometry x="-60" y="417.5" width="120" height="45" as="geometry" />
        </mxCell>
        <mxCell id="f87VL9ql5aKDiun6NzoF-8" value="" style="endArrow=classic;html=1;rounded=0;fillColor=#f8cecc;strokeColor=#b85450;" edge="1" parent="W7-rKrqx2AuoTJekvJAu-1" source="f87VL9ql5aKDiun6NzoF-7">
          <mxGeometry width="50" height="50" relative="1" as="geometry">
            <mxPoint x="-0.18000000000006366" y="569.9999999999999" as="sourcePoint" />
            <mxPoint x="-0.5" y="649.58" as="targetPoint" />
          </mxGeometry>
        </mxCell>
        <mxCell id="f87VL9ql5aKDiun6NzoF-11" value="获取采样数据" style="text;html=1;strokeColor=none;fillColor=none;align=center;verticalAlign=middle;whiteSpace=wrap;rounded=0;" vertex="1" parent="W7-rKrqx2AuoTJekvJAu-1">
          <mxGeometry x="7.5" y="525" width="60" height="30" as="geometry" />
        </mxCell>
        <mxCell id="f87VL9ql5aKDiun6NzoF-13" value="Deploy" style="text;html=1;strokeColor=none;fillColor=none;align=center;verticalAlign=middle;whiteSpace=wrap;rounded=0;" vertex="1" parent="W7-rKrqx2AuoTJekvJAu-1">
          <mxGeometry x="60" y="410" width="60" height="30" as="geometry" />
        </mxCell>
        <mxCell id="f87VL9ql5aKDiun6NzoF-19" value="前端" style="ellipse;whiteSpace=wrap;html=1;" vertex="1" parent="W7-rKrqx2AuoTJekvJAu-1">
          <mxGeometry x="-70" y="160" width="120" height="60" as="geometry" />
        </mxCell>
        <mxCell id="f87VL9ql5aKDiun6NzoF-21" value="" style="endArrow=classic;html=1;rounded=0;entryX=0.75;entryY=1;entryDx=0;entryDy=0;fillColor=#f8cecc;strokeColor=#b85450;" edge="1" parent="W7-rKrqx2AuoTJekvJAu-1" target="W7-rKrqx2AuoTJekvJAu-7">
          <mxGeometry width="50" height="50" relative="1" as="geometry">
            <mxPoint x="40" y="640" as="sourcePoint" />
            <mxPoint x="160" y="540" as="targetPoint" />
            <Array as="points">
              <mxPoint x="621" y="640" />
            </Array>
          </mxGeometry>
        </mxCell>
        <mxCell id="f87VL9ql5aKDiun6NzoF-23" value="通过异步队列写进数据库" style="text;html=1;align=center;verticalAlign=middle;resizable=0;points=[];autosize=1;strokeColor=none;fillColor=none;" vertex="1" parent="W7-rKrqx2AuoTJekvJAu-1">
          <mxGeometry x="210" y="610" width="160" height="30" as="geometry" />
        </mxCell>
        <mxCell id="f87VL9ql5aKDiun6NzoF-24" value="gRPC" style="text;html=1;align=center;verticalAlign=middle;resizable=0;points=[];autosize=1;strokeColor=none;fillColor=none;" vertex="1" parent="W7-rKrqx2AuoTJekvJAu-1">
          <mxGeometry x="400" y="610" width="60" height="30" as="geometry" />
        </mxCell>
        <mxCell id="PisGtAleUoNAKMGKuRBi-0" value="" style="endArrow=classic;html=1;rounded=0;exitX=0;exitY=0.75;exitDx=0;exitDy=0;entryX=0.5;entryY=0;entryDx=0;entryDy=0;fillColor=#f8cecc;strokeColor=#b85450;" edge="1" parent="W7-rKrqx2AuoTJekvJAu-1" source="W7-rKrqx2AuoTJekvJAu-7" target="f87VL9ql5aKDiun6NzoF-2">
          <mxGeometry width="50" height="50" relative="1" as="geometry">
            <mxPoint x="20" y="350" as="sourcePoint" />
            <mxPoint x="70" y="300" as="targetPoint" />
            <Array as="points">
              <mxPoint y="245" />
            </Array>
          </mxGeometry>
        </mxCell>
        <mxCell id="PisGtAleUoNAKMGKuRBi-1" value="发布sample变化" style="text;html=1;strokeColor=none;fillColor=none;align=center;verticalAlign=middle;whiteSpace=wrap;rounded=0;" vertex="1" parent="W7-rKrqx2AuoTJekvJAu-1">
          <mxGeometry x="90" y="223" width="120" height="30" as="geometry" />
        </mxCell>
        <mxCell id="PisGtAleUoNAKMGKuRBi-2" value="gRPC" style="text;html=1;align=center;verticalAlign=middle;resizable=0;points=[];autosize=1;strokeColor=none;fillColor=none;" vertex="1" parent="W7-rKrqx2AuoTJekvJAu-1">
          <mxGeometry x="260" y="240" width="60" height="30" as="geometry" />
        </mxCell>
        <mxCell id="jOD7I7ps1fKyKr9JoWsd-0" value="" style="endArrow=classic;html=1;rounded=0;exitX=0;exitY=0.5;exitDx=0;exitDy=0;" edge="1" parent="W7-rKrqx2AuoTJekvJAu-1" source="W7-rKrqx2AuoTJekvJAu-14">
          <mxGeometry width="50" height="50" relative="1" as="geometry">
            <mxPoint x="190" y="460" as="sourcePoint" />
            <mxPoint x="60" y="440" as="targetPoint" />
          </mxGeometry>
        </mxCell>
        <mxCell id="nSvTF0xJLytpFi_meoHh-6" value="" style="endArrow=classic;html=1;rounded=0;fillColor=#f8cecc;strokeColor=#b85450;entryX=-0.001;entryY=0.89;entryDx=0;entryDy=0;entryPerimeter=0;" edge="1" parent="W7-rKrqx2AuoTJekvJAu-1" target="W7-rKrqx2AuoTJekvJAu-7">
          <mxGeometry width="50" height="50" relative="1" as="geometry">
            <mxPoint x="24" y="420" as="sourcePoint" />
            <mxPoint x="480" y="270" as="targetPoint" />
            <Array as="points">
              <mxPoint x="24" y="270" />
            </Array>
          </mxGeometry>
        </mxCell>
        <mxCell id="nSvTF0xJLytpFi_meoHh-8" value="订阅sample变化" style="text;html=1;strokeColor=none;fillColor=none;align=center;verticalAlign=middle;whiteSpace=wrap;rounded=0;" vertex="1" parent="W7-rKrqx2AuoTJekvJAu-1">
          <mxGeometry x="67.5" y="266" width="170" height="30" as="geometry" />
        </mxCell>
        <mxCell id="nSvTF0xJLytpFi_meoHh-11" value="" style="endArrow=classic;html=1;rounded=0;fillColor=#f8cecc;strokeColor=#b85450;" edge="1" parent="W7-rKrqx2AuoTJekvJAu-1" source="f87VL9ql5aKDiun6NzoF-2" target="f87VL9ql5aKDiun6NzoF-7">
          <mxGeometry width="50" height="50" relative="1" as="geometry">
            <mxPoint x="-2" y="470" as="sourcePoint" />
            <mxPoint x="-0.5" y="649.58" as="targetPoint" />
          </mxGeometry>
        </mxCell>
        <mxCell id="f87VL9ql5aKDiun6NzoF-7" value="采样数据" style="rhombus;whiteSpace=wrap;html=1;" vertex="1" parent="W7-rKrqx2AuoTJekvJAu-1">
          <mxGeometry x="-42.5" y="600" width="80" height="80" as="geometry" />
        </mxCell>
        <mxCell id="D6jhcnH3acUFcQ8o0Wzg-2" value="&lt;font style=&quot;font-size: 20px;&quot;&gt;质量管理技术架构图&lt;/font&gt;" style="rounded=1;whiteSpace=wrap;html=1;fillColor=#f8cecc;strokeColor=#b85450;" vertex="1" parent="W7-rKrqx2AuoTJekvJAu-1">
          <mxGeometry x="-110" y="-20" width="1050" height="50" as="geometry" />
        </mxCell>
        <mxCell id="9Js7fH_1BD-m-nRLBRbz-0" value="" style="endArrow=classic;html=1;rounded=0;entryX=1;entryY=0.5;entryDx=0;entryDy=0;" edge="1" parent="W7-rKrqx2AuoTJekvJAu-1" target="W7-rKrqx2AuoTJekvJAu-7">
          <mxGeometry width="50" height="50" relative="1" as="geometry">
            <mxPoint x="820" y="200" as="sourcePoint" />
            <mxPoint x="780" y="230" as="targetPoint" />
          </mxGeometry>
        </mxCell>
        <mxCell id="9Js7fH_1BD-m-nRLBRbz-1" value="1" style="text;html=1;strokeColor=none;fillColor=none;align=center;verticalAlign=middle;whiteSpace=wrap;rounded=0;" vertex="1" parent="W7-rKrqx2AuoTJekvJAu-1">
          <mxGeometry x="365" y="160" width="60" height="30" as="geometry" />
        </mxCell>
        <mxCell id="9Js7fH_1BD-m-nRLBRbz-2" value="&lt;h1&gt;Heading&lt;/h1&gt;&lt;p&gt;Lorem ipsum dolor sit amet, consectetur adipisicing elit, sed do eiusmod tempor incididunt ut labore et dolore magna aliqua.&lt;/p&gt;" style="text;html=1;strokeColor=none;fillColor=none;spacing=5;spacingTop=-20;whiteSpace=wrap;overflow=hidden;rounded=0;" vertex="1" parent="W7-rKrqx2AuoTJekvJAu-1">
          <mxGeometry x="570" y="330" width="190" height="120" as="geometry" />
        </mxCell>
      </root>
    </mxGraphModel>
  </diagram>
  <diagram name="Setting" id="OvNvgwD5XciTS4iK91sJ">
    <mxGraphModel dx="2607" dy="559" grid="1" gridSize="10" guides="1" tooltips="1" connect="1" arrows="1" fold="1" page="1" pageScale="1" pageWidth="827" pageHeight="1169" math="0" shadow="0">
      <root>
        <mxCell id="_XlZvUamtfGYRmjocg8x-0" />
        <mxCell id="_XlZvUamtfGYRmjocg8x-1" parent="_XlZvUamtfGYRmjocg8x-0" />
        <mxCell id="_XlZvUamtfGYRmjocg8x-2" value="" style="endArrow=classic;html=1;rounded=0;" edge="1" parent="_XlZvUamtfGYRmjocg8x-1">
          <mxGeometry width="50" height="50" relative="1" as="geometry">
            <mxPoint x="80" y="189.5" as="sourcePoint" />
            <mxPoint x="440" y="190" as="targetPoint" />
            <Array as="points">
              <mxPoint x="220" y="189.5" />
            </Array>
          </mxGeometry>
        </mxCell>
        <mxCell id="_XlZvUamtfGYRmjocg8x-3" value="Web API Calls" style="text;html=1;strokeColor=none;fillColor=none;align=center;verticalAlign=middle;whiteSpace=wrap;rounded=0;" vertex="1" parent="_XlZvUamtfGYRmjocg8x-1">
          <mxGeometry x="170" y="160" width="170" height="30" as="geometry" />
        </mxCell>
        <mxCell id="_XlZvUamtfGYRmjocg8x-4" value="" style="endArrow=classic;html=1;rounded=0;" edge="1" parent="_XlZvUamtfGYRmjocg8x-1">
          <mxGeometry width="50" height="50" relative="1" as="geometry">
            <mxPoint x="150" y="190" as="sourcePoint" />
            <mxPoint x="260" y="70" as="targetPoint" />
            <Array as="points">
              <mxPoint x="150" y="70" />
            </Array>
          </mxGeometry>
        </mxCell>
        <mxCell id="_XlZvUamtfGYRmjocg8x-5" value="" style="verticalLabelPosition=bottom;verticalAlign=top;html=1;shape=mxgraph.basic.star" vertex="1" parent="_XlZvUamtfGYRmjocg8x-1">
          <mxGeometry x="260" y="60" width="30" height="30" as="geometry" />
        </mxCell>
        <mxCell id="_XlZvUamtfGYRmjocg8x-6" value="JWT" style="text;html=1;strokeColor=none;fillColor=none;align=center;verticalAlign=middle;whiteSpace=wrap;rounded=0;" vertex="1" parent="_XlZvUamtfGYRmjocg8x-1">
          <mxGeometry x="280" y="60" width="60" height="30" as="geometry" />
        </mxCell>
        <mxCell id="_XlZvUamtfGYRmjocg8x-7" value="MESSettingApi" style="shape=ext;double=1;whiteSpace=wrap;html=1;aspect=fixed;" vertex="1" parent="_XlZvUamtfGYRmjocg8x-1">
          <mxGeometry x="440" y="150" width="100" height="100" as="geometry" />
        </mxCell>
        <mxCell id="_XlZvUamtfGYRmjocg8x-8" value="System Database" style="shape=cylinder3;whiteSpace=wrap;html=1;boundedLbl=1;backgroundOutline=1;size=15;" vertex="1" parent="_XlZvUamtfGYRmjocg8x-1">
          <mxGeometry x="460" y="400" width="60" height="60" as="geometry" />
        </mxCell>
        <mxCell id="_XlZvUamtfGYRmjocg8x-9" value="" style="endArrow=classic;html=1;rounded=0;exitX=0.5;exitY=1;exitDx=0;exitDy=0;" edge="1" parent="_XlZvUamtfGYRmjocg8x-1" source="_XlZvUamtfGYRmjocg8x-7" target="_XlZvUamtfGYRmjocg8x-8">
          <mxGeometry width="50" height="50" relative="1" as="geometry">
            <mxPoint x="530" y="330" as="sourcePoint" />
            <mxPoint x="580" y="280" as="targetPoint" />
          </mxGeometry>
        </mxCell>
        <mxCell id="_XlZvUamtfGYRmjocg8x-10" value="MySQL" style="text;html=1;strokeColor=none;fillColor=none;align=center;verticalAlign=middle;whiteSpace=wrap;rounded=0;" vertex="1" parent="_XlZvUamtfGYRmjocg8x-1">
          <mxGeometry x="450" y="470" width="60" height="30" as="geometry" />
        </mxCell>
        <mxCell id="_XlZvUamtfGYRmjocg8x-19" value="" style="shape=actor;whiteSpace=wrap;html=1;" vertex="1" parent="_XlZvUamtfGYRmjocg8x-1">
          <mxGeometry x="-80" y="155" width="40" height="60" as="geometry" />
        </mxCell>
        <mxCell id="lqnBEP_Il8Ser6ssCTtO-0" value="工艺工序管理、生产排程管理" style="rounded=1;whiteSpace=wrap;html=1;fillColor=#f8cecc;strokeColor=#b85450;" vertex="1" parent="_XlZvUamtfGYRmjocg8x-1">
          <mxGeometry x="-80" y="10" width="630" height="30" as="geometry" />
        </mxCell>
        <mxCell id="EzeKYqs7o-uC5K2d60S2-0" value="前端" style="ellipse;whiteSpace=wrap;html=1;" vertex="1" parent="_XlZvUamtfGYRmjocg8x-1">
          <mxGeometry x="-20" y="165" width="100" height="50" as="geometry" />
        </mxCell>
      </root>
    </mxGraphModel>
  </diagram>
  <diagram name="QM" id="DtMzBdZq980YOTpav86M">
    <mxGraphModel dx="2293" dy="460" grid="1" gridSize="10" guides="1" tooltips="1" connect="1" arrows="1" fold="1" page="1" pageScale="1" pageWidth="827" pageHeight="1169" math="0" shadow="0">
      <root>
        <mxCell id="0" />
        <mxCell id="1" parent="0" />
        <mxCell id="0nBUvXIp7eSsYGDBzPyK-5" value="" style="endArrow=classic;html=1;rounded=0;" edge="1" parent="1">
          <mxGeometry width="50" height="50" relative="1" as="geometry">
            <mxPoint x="80" y="189.5" as="sourcePoint" />
            <mxPoint x="440" y="190" as="targetPoint" />
            <Array as="points">
              <mxPoint x="220" y="189.5" />
            </Array>
          </mxGeometry>
        </mxCell>
        <mxCell id="0nBUvXIp7eSsYGDBzPyK-6" value="Web API Calls" style="text;html=1;strokeColor=none;fillColor=none;align=center;verticalAlign=middle;whiteSpace=wrap;rounded=0;" vertex="1" parent="1">
          <mxGeometry x="170" y="160" width="170" height="30" as="geometry" />
        </mxCell>
        <mxCell id="0nBUvXIp7eSsYGDBzPyK-7" value="" style="endArrow=classic;html=1;rounded=0;" edge="1" parent="1">
          <mxGeometry width="50" height="50" relative="1" as="geometry">
            <mxPoint x="150" y="190" as="sourcePoint" />
            <mxPoint x="260" y="70" as="targetPoint" />
            <Array as="points">
              <mxPoint x="150" y="70" />
            </Array>
          </mxGeometry>
        </mxCell>
        <mxCell id="0nBUvXIp7eSsYGDBzPyK-9" value="" style="verticalLabelPosition=bottom;verticalAlign=top;html=1;shape=mxgraph.basic.star" vertex="1" parent="1">
          <mxGeometry x="260" y="60" width="30" height="30" as="geometry" />
        </mxCell>
        <mxCell id="0nBUvXIp7eSsYGDBzPyK-10" value="JWT" style="text;html=1;strokeColor=none;fillColor=none;align=center;verticalAlign=middle;whiteSpace=wrap;rounded=0;" vertex="1" parent="1">
          <mxGeometry x="280" y="60" width="60" height="30" as="geometry" />
        </mxCell>
        <mxCell id="0nBUvXIp7eSsYGDBzPyK-16" value="MESQM&lt;br&gt;WebApi" style="shape=ext;double=1;whiteSpace=wrap;html=1;aspect=fixed;" vertex="1" parent="1">
          <mxGeometry x="440" y="150" width="80" height="80" as="geometry" />
        </mxCell>
        <mxCell id="0nBUvXIp7eSsYGDBzPyK-17" value="System Database" style="shape=cylinder3;whiteSpace=wrap;html=1;boundedLbl=1;backgroundOutline=1;size=15;" vertex="1" parent="1">
          <mxGeometry x="450" y="400" width="60" height="60" as="geometry" />
        </mxCell>
        <mxCell id="0nBUvXIp7eSsYGDBzPyK-18" value="" style="endArrow=classic;html=1;rounded=0;exitX=0.5;exitY=1;exitDx=0;exitDy=0;" edge="1" parent="1" source="0nBUvXIp7eSsYGDBzPyK-16" target="0nBUvXIp7eSsYGDBzPyK-17">
          <mxGeometry width="50" height="50" relative="1" as="geometry">
            <mxPoint x="530" y="330" as="sourcePoint" />
            <mxPoint x="580" y="280" as="targetPoint" />
          </mxGeometry>
        </mxCell>
        <mxCell id="0nBUvXIp7eSsYGDBzPyK-19" value="MySQL" style="text;html=1;strokeColor=none;fillColor=none;align=center;verticalAlign=middle;whiteSpace=wrap;rounded=0;" vertex="1" parent="1">
          <mxGeometry x="450" y="470" width="60" height="30" as="geometry" />
        </mxCell>
        <mxCell id="0nBUvXIp7eSsYGDBzPyK-20" value="" style="endArrow=classic;html=1;rounded=0;exitX=0.25;exitY=1;exitDx=0;exitDy=0;fillColor=#f8cecc;strokeColor=#b85450;" edge="1" parent="1" source="0nBUvXIp7eSsYGDBzPyK-16">
          <mxGeometry width="50" height="50" relative="1" as="geometry">
            <mxPoint x="230" y="390" as="sourcePoint" />
            <mxPoint x="280" y="340" as="targetPoint" />
            <Array as="points">
              <mxPoint x="460" y="340" />
            </Array>
          </mxGeometry>
        </mxCell>
        <mxCell id="0nBUvXIp7eSsYGDBzPyK-21" value="MQ" style="shape=process;whiteSpace=wrap;html=1;backgroundOutline=1;" vertex="1" parent="1">
          <mxGeometry x="200" y="320" width="85" height="40" as="geometry" />
        </mxCell>
        <mxCell id="0nBUvXIp7eSsYGDBzPyK-22" value="发布QM配置修改消息" style="text;html=1;strokeColor=none;fillColor=none;align=center;verticalAlign=middle;whiteSpace=wrap;rounded=0;" vertex="1" parent="1">
          <mxGeometry x="340" y="310" width="80" height="30" as="geometry" />
        </mxCell>
        <mxCell id="0nBUvXIp7eSsYGDBzPyK-23" value="SRO(object)" style="shape=hexagon;perimeter=hexagonPerimeter2;whiteSpace=wrap;html=1;fixedSize=1;" vertex="1" parent="1">
          <mxGeometry x="10" y="410" width="80" height="40" as="geometry" />
        </mxCell>
        <mxCell id="0nBUvXIp7eSsYGDBzPyK-24" value="RabbitMQ" style="text;html=1;align=center;verticalAlign=middle;resizable=0;points=[];autosize=1;strokeColor=none;fillColor=none;" vertex="1" parent="1">
          <mxGeometry x="202.5" y="360" width="80" height="30" as="geometry" />
        </mxCell>
        <mxCell id="0nBUvXIp7eSsYGDBzPyK-26" value="订阅QM配置修改消息" style="text;html=1;strokeColor=none;fillColor=none;align=center;verticalAlign=middle;whiteSpace=wrap;rounded=0;" vertex="1" parent="1">
          <mxGeometry x="70" y="310" width="80" height="30" as="geometry" />
        </mxCell>
        <mxCell id="0nBUvXIp7eSsYGDBzPyK-28" value="" style="shape=actor;whiteSpace=wrap;html=1;" vertex="1" parent="1">
          <mxGeometry x="-25" y="150" width="40" height="60" as="geometry" />
        </mxCell>
        <mxCell id="0nBUvXIp7eSsYGDBzPyK-30" value="采样数据" style="rounded=1;whiteSpace=wrap;html=1;" vertex="1" parent="1">
          <mxGeometry x="15" y="620" width="70" height="40" as="geometry" />
        </mxCell>
        <mxCell id="0nBUvXIp7eSsYGDBzPyK-34" value="" style="endArrow=classic;html=1;rounded=0;exitX=1;exitY=0.5;exitDx=0;exitDy=0;entryX=0.584;entryY=-0.107;entryDx=0;entryDy=0;entryPerimeter=0;fillColor=#d5e8d4;strokeColor=#82b366;" edge="1" parent="1" source="0nBUvXIp7eSsYGDBzPyK-23" target="0nBUvXIp7eSsYGDBzPyK-24">
          <mxGeometry width="50" height="50" relative="1" as="geometry">
            <mxPoint x="200" y="450" as="sourcePoint" />
            <mxPoint x="250" y="400" as="targetPoint" />
            <Array as="points">
              <mxPoint x="250" y="430" />
            </Array>
          </mxGeometry>
        </mxCell>
        <mxCell id="0nBUvXIp7eSsYGDBzPyK-35" value="发送采样结果" style="text;html=1;strokeColor=none;fillColor=none;align=center;verticalAlign=middle;whiteSpace=wrap;rounded=0;" vertex="1" parent="1">
          <mxGeometry x="140" y="400" width="60" height="30" as="geometry" />
        </mxCell>
        <mxCell id="0nBUvXIp7eSsYGDBzPyK-37" value="" style="endArrow=classic;html=1;rounded=0;entryX=0;entryY=0.75;entryDx=0;entryDy=0;fillColor=#d5e8d4;strokeColor=#82b366;" edge="1" parent="1" target="0nBUvXIp7eSsYGDBzPyK-16">
          <mxGeometry width="50" height="50" relative="1" as="geometry">
            <mxPoint x="250" y="320" as="sourcePoint" />
            <mxPoint x="300" y="270" as="targetPoint" />
            <Array as="points">
              <mxPoint x="250" y="210" />
            </Array>
          </mxGeometry>
        </mxCell>
        <mxCell id="0nBUvXIp7eSsYGDBzPyK-38" value="获取采样结果" style="text;html=1;strokeColor=none;fillColor=none;align=center;verticalAlign=middle;whiteSpace=wrap;rounded=0;" vertex="1" parent="1">
          <mxGeometry x="250" y="240" width="60" height="30" as="geometry" />
        </mxCell>
        <mxCell id="0nBUvXIp7eSsYGDBzPyK-40" value="展示图表" style="ellipse;whiteSpace=wrap;html=1;" vertex="1" parent="1">
          <mxGeometry x="690" y="160" width="120" height="60" as="geometry" />
        </mxCell>
        <mxCell id="0nBUvXIp7eSsYGDBzPyK-41" value="SPC" style="text;html=1;align=center;verticalAlign=middle;resizable=0;points=[];autosize=1;strokeColor=none;fillColor=none;" vertex="1" parent="1">
          <mxGeometry x="725" y="230" width="50" height="30" as="geometry" />
        </mxCell>
        <mxCell id="0nBUvXIp7eSsYGDBzPyK-42" value="" style="endArrow=classic;html=1;rounded=0;exitX=1;exitY=0.5;exitDx=0;exitDy=0;" edge="1" parent="1" source="0nBUvXIp7eSsYGDBzPyK-16" target="0nBUvXIp7eSsYGDBzPyK-40">
          <mxGeometry width="50" height="50" relative="1" as="geometry">
            <mxPoint x="560" y="270" as="sourcePoint" />
            <mxPoint x="610" y="220" as="targetPoint" />
          </mxGeometry>
        </mxCell>
        <mxCell id="0nBUvXIp7eSsYGDBzPyK-43" value="获取采样结果" style="text;html=1;strokeColor=none;fillColor=none;align=center;verticalAlign=middle;whiteSpace=wrap;rounded=0;" vertex="1" parent="1">
          <mxGeometry x="540" y="150" width="60" height="30" as="geometry" />
        </mxCell>
        <mxCell id="lp3Orl1mMCRL3qh_Hou9-1" value="日志" style="shape=document;whiteSpace=wrap;html=1;boundedLbl=1;" vertex="1" parent="1">
          <mxGeometry x="590" y="320" width="70" height="40" as="geometry" />
        </mxCell>
        <mxCell id="lp3Orl1mMCRL3qh_Hou9-2" value="" style="endArrow=classic;html=1;rounded=0;exitX=1;exitY=0.75;exitDx=0;exitDy=0;entryX=0.5;entryY=0;entryDx=0;entryDy=0;" edge="1" parent="1" source="0nBUvXIp7eSsYGDBzPyK-16" target="lp3Orl1mMCRL3qh_Hou9-1">
          <mxGeometry width="50" height="50" relative="1" as="geometry">
            <mxPoint x="580" y="330" as="sourcePoint" />
            <mxPoint x="600" y="400" as="targetPoint" />
            <Array as="points">
              <mxPoint x="625" y="210" />
            </Array>
          </mxGeometry>
        </mxCell>
        <mxCell id="lp3Orl1mMCRL3qh_Hou9-3" value="Nlog" style="text;html=1;strokeColor=none;fillColor=none;align=center;verticalAlign=middle;whiteSpace=wrap;rounded=0;" vertex="1" parent="1">
          <mxGeometry x="600" y="360" width="60" height="30" as="geometry" />
        </mxCell>
        <mxCell id="awTH2O_KrE8B7A9X2mkc-1" value="配置采样参数" style="text;html=1;strokeColor=none;fillColor=none;align=center;verticalAlign=middle;whiteSpace=wrap;rounded=0;" vertex="1" parent="1">
          <mxGeometry x="30" y="160" width="105" height="30" as="geometry" />
        </mxCell>
        <mxCell id="awTH2O_KrE8B7A9X2mkc-4" value="" style="endArrow=classic;html=1;rounded=0;exitX=0.5;exitY=1;exitDx=0;exitDy=0;entryX=0.5;entryY=0;entryDx=0;entryDy=0;" edge="1" parent="1" source="0nBUvXIp7eSsYGDBzPyK-23" target="0nBUvXIp7eSsYGDBzPyK-30">
          <mxGeometry width="50" height="50" relative="1" as="geometry">
            <mxPoint x="100" y="550" as="sourcePoint" />
            <mxPoint x="50" y="610" as="targetPoint" />
          </mxGeometry>
        </mxCell>
        <mxCell id="awTH2O_KrE8B7A9X2mkc-6" value="" style="endArrow=classic;html=1;rounded=0;entryX=0;entryY=0.5;entryDx=0;entryDy=0;fillColor=#f8cecc;strokeColor=#b85450;" edge="1" parent="1" target="0nBUvXIp7eSsYGDBzPyK-21">
          <mxGeometry width="50" height="50" relative="1" as="geometry">
            <mxPoint x="50" y="410" as="sourcePoint" />
            <mxPoint x="100" y="360" as="targetPoint" />
            <Array as="points">
              <mxPoint x="50" y="340" />
            </Array>
          </mxGeometry>
        </mxCell>
      </root>
    </mxGraphModel>
  </diagram>
</mxfile>
